<mxfile host="app.diagrams.net" modified="2023-04-12T18:07:54.929Z" agent="Mozilla/5.0 (Windows NT 10.0; Win64; x64) AppleWebKit/537.36 (KHTML, like Gecko) Chrome/112.0.0.0 Safari/537.36" etag="-jggLSbDEWkzs-3A77fW" version="21.1.6" type="github">
  <diagram name="Page-1" id="n1fe1yE27rQRRwrI7tOu">
    <mxGraphModel dx="2899" dy="999" grid="1" gridSize="10" guides="1" tooltips="1" connect="1" arrows="1" fold="1" page="1" pageScale="1" pageWidth="850" pageHeight="1100" math="0" shadow="0">
      <root>
        <mxCell id="0" />
        <mxCell id="1" parent="0" />
        <mxCell id="0-gvIS_jXQqOGHr48Svx-93" value="" style="rounded=0;whiteSpace=wrap;html=1;" parent="1" vertex="1">
          <mxGeometry x="-530" y="942.5" width="1860" height="1125" as="geometry" />
        </mxCell>
        <mxCell id="0-gvIS_jXQqOGHr48Svx-67" value="" style="rounded=1;whiteSpace=wrap;html=1;" parent="1" vertex="1">
          <mxGeometry x="183" y="1790" width="430" height="240" as="geometry" />
        </mxCell>
        <mxCell id="0-gvIS_jXQqOGHr48Svx-66" value="" style="rounded=1;whiteSpace=wrap;html=1;" parent="1" vertex="1">
          <mxGeometry x="173" y="1780" width="430" height="240" as="geometry" />
        </mxCell>
        <mxCell id="0-gvIS_jXQqOGHr48Svx-58" value="" style="rounded=1;whiteSpace=wrap;html=1;" parent="1" vertex="1">
          <mxGeometry x="163" y="1770" width="430" height="240" as="geometry" />
        </mxCell>
        <mxCell id="0-gvIS_jXQqOGHr48Svx-49" value="" style="rounded=1;whiteSpace=wrap;html=1;" parent="1" vertex="1">
          <mxGeometry x="-485" y="1120" width="410" height="320" as="geometry" />
        </mxCell>
        <mxCell id="0-gvIS_jXQqOGHr48Svx-39" value="" style="rounded=1;whiteSpace=wrap;html=1;" parent="1" vertex="1">
          <mxGeometry x="-490" y="1450" width="580" height="240" as="geometry" />
        </mxCell>
        <mxCell id="0-gvIS_jXQqOGHr48Svx-26" value="" style="rounded=1;whiteSpace=wrap;html=1;" parent="1" vertex="1">
          <mxGeometry x="680" y="1430" width="610" height="380" as="geometry" />
        </mxCell>
        <mxCell id="0-gvIS_jXQqOGHr48Svx-25" value="" style="rounded=1;whiteSpace=wrap;html=1;" parent="1" vertex="1">
          <mxGeometry x="680" y="1260" width="420" height="140" as="geometry" />
        </mxCell>
        <mxCell id="uHP_KrZKe9CXP2k7EGdI-4" value="" style="edgeStyle=orthogonalEdgeStyle;rounded=0;orthogonalLoop=1;jettySize=auto;html=1;" parent="1" source="uHP_KrZKe9CXP2k7EGdI-1" target="uHP_KrZKe9CXP2k7EGdI-3" edge="1">
          <mxGeometry relative="1" as="geometry" />
        </mxCell>
        <mxCell id="uHP_KrZKe9CXP2k7EGdI-1" value="kresus wallet extension" style="swimlane;whiteSpace=wrap;html=1;" parent="1" vertex="1">
          <mxGeometry x="70" y="720" width="200" height="200" as="geometry" />
        </mxCell>
        <mxCell id="uHP_KrZKe9CXP2k7EGdI-29" value="&lt;ul&gt;&lt;li&gt;Tokens&lt;/li&gt;&lt;li&gt;Custum Token Approvals&lt;/li&gt;&lt;li&gt;NFTS&lt;/li&gt;&lt;li&gt;Rental NFTs&lt;/li&gt;&lt;li&gt;SFTS&lt;/li&gt;&lt;li&gt;ENS&lt;/li&gt;&lt;li&gt;Multi-Sig&lt;/li&gt;&lt;/ul&gt;" style="rounded=1;whiteSpace=wrap;html=1;align=left;" parent="uHP_KrZKe9CXP2k7EGdI-1" vertex="1">
          <mxGeometry x="10" y="30" width="180" height="120" as="geometry" />
        </mxCell>
        <mxCell id="uHP_KrZKe9CXP2k7EGdI-30" value="Background script" style="rounded=1;whiteSpace=wrap;html=1;" parent="uHP_KrZKe9CXP2k7EGdI-1" vertex="1">
          <mxGeometry x="10" y="160" width="180" height="30" as="geometry" />
        </mxCell>
        <mxCell id="uHP_KrZKe9CXP2k7EGdI-12" value="" style="edgeStyle=orthogonalEdgeStyle;rounded=0;orthogonalLoop=1;jettySize=auto;html=1;" parent="1" source="uHP_KrZKe9CXP2k7EGdI-2" target="uHP_KrZKe9CXP2k7EGdI-10" edge="1">
          <mxGeometry relative="1" as="geometry" />
        </mxCell>
        <mxCell id="uHP_KrZKe9CXP2k7EGdI-2" value="Web application" style="rounded=1;whiteSpace=wrap;html=1;" parent="1" vertex="1">
          <mxGeometry x="335" y="630" width="120" height="60" as="geometry" />
        </mxCell>
        <mxCell id="uHP_KrZKe9CXP2k7EGdI-5" value="" style="edgeStyle=orthogonalEdgeStyle;rounded=0;orthogonalLoop=1;jettySize=auto;html=1;entryX=0.5;entryY=1;entryDx=0;entryDy=0;startArrow=classic;startFill=1;" parent="1" source="uHP_KrZKe9CXP2k7EGdI-3" target="uHP_KrZKe9CXP2k7EGdI-6" edge="1">
          <mxGeometry relative="1" as="geometry" />
        </mxCell>
        <mxCell id="uHP_KrZKe9CXP2k7EGdI-15" value="" style="edgeStyle=orthogonalEdgeStyle;rounded=0;orthogonalLoop=1;jettySize=auto;html=1;" parent="1" source="uHP_KrZKe9CXP2k7EGdI-3" target="uHP_KrZKe9CXP2k7EGdI-14" edge="1">
          <mxGeometry relative="1" as="geometry" />
        </mxCell>
        <mxCell id="uHP_KrZKe9CXP2k7EGdI-3" value="Content script" style="shape=process;whiteSpace=wrap;html=1;backgroundOutline=1;" parent="1" vertex="1">
          <mxGeometry x="335" y="790" width="120" height="60" as="geometry" />
        </mxCell>
        <mxCell id="uHP_KrZKe9CXP2k7EGdI-7" value="" style="edgeStyle=orthogonalEdgeStyle;rounded=0;orthogonalLoop=1;jettySize=auto;html=1;" parent="1" source="uHP_KrZKe9CXP2k7EGdI-6" target="uHP_KrZKe9CXP2k7EGdI-2" edge="1">
          <mxGeometry relative="1" as="geometry" />
        </mxCell>
        <mxCell id="uHP_KrZKe9CXP2k7EGdI-6" value="Inpage" style="rounded=0;whiteSpace=wrap;html=1;" parent="1" vertex="1">
          <mxGeometry x="335" y="710" width="120" height="20" as="geometry" />
        </mxCell>
        <mxCell id="uHP_KrZKe9CXP2k7EGdI-13" style="edgeStyle=orthogonalEdgeStyle;rounded=0;orthogonalLoop=1;jettySize=auto;html=1;entryX=1;entryY=0.5;entryDx=0;entryDy=0;" parent="1" source="0-gvIS_jXQqOGHr48Svx-9" target="uHP_KrZKe9CXP2k7EGdI-6" edge="1">
          <mxGeometry relative="1" as="geometry">
            <Array as="points" />
          </mxGeometry>
        </mxCell>
        <mxCell id="uHP_KrZKe9CXP2k7EGdI-10" value="EtherJS/Web3JS" style="rounded=0;whiteSpace=wrap;html=1;" parent="1" vertex="1">
          <mxGeometry x="540" y="650" width="120" height="20" as="geometry" />
        </mxCell>
        <mxCell id="uHP_KrZKe9CXP2k7EGdI-16" style="edgeStyle=orthogonalEdgeStyle;rounded=0;orthogonalLoop=1;jettySize=auto;html=1;entryX=0.5;entryY=1;entryDx=0;entryDy=0;" parent="1" source="uHP_KrZKe9CXP2k7EGdI-14" target="uHP_KrZKe9CXP2k7EGdI-1" edge="1">
          <mxGeometry relative="1" as="geometry" />
        </mxCell>
        <mxCell id="uHP_KrZKe9CXP2k7EGdI-28" style="edgeStyle=orthogonalEdgeStyle;rounded=0;orthogonalLoop=1;jettySize=auto;html=1;entryX=0;entryY=0.5;entryDx=0;entryDy=0;" parent="1" source="uHP_KrZKe9CXP2k7EGdI-14" edge="1">
          <mxGeometry relative="1" as="geometry">
            <mxPoint x="539.9999999999998" y="1035" as="targetPoint" />
          </mxGeometry>
        </mxCell>
        <mxCell id="uHP_KrZKe9CXP2k7EGdI-14" value="Kresus provider" style="whiteSpace=wrap;html=1;" parent="1" vertex="1">
          <mxGeometry x="335" y="1005" width="120" height="60" as="geometry" />
        </mxCell>
        <mxCell id="0-gvIS_jXQqOGHr48Svx-2" value="" style="edgeStyle=orthogonalEdgeStyle;rounded=0;orthogonalLoop=1;jettySize=auto;html=1;" parent="1" source="uHP_KrZKe9CXP2k7EGdI-17" target="uHP_KrZKe9CXP2k7EGdI-14" edge="1">
          <mxGeometry relative="1" as="geometry" />
        </mxCell>
        <mxCell id="uHP_KrZKe9CXP2k7EGdI-17" value="Config manager" style="whiteSpace=wrap;html=1;" parent="1" vertex="1">
          <mxGeometry x="335" y="1150" width="120" height="60" as="geometry" />
        </mxCell>
        <mxCell id="uHP_KrZKe9CXP2k7EGdI-20" style="edgeStyle=orthogonalEdgeStyle;rounded=0;orthogonalLoop=1;jettySize=auto;html=1;" parent="1" source="uHP_KrZKe9CXP2k7EGdI-19" target="uHP_KrZKe9CXP2k7EGdI-17" edge="1">
          <mxGeometry relative="1" as="geometry">
            <Array as="points">
              <mxPoint x="270" y="1180" />
            </Array>
          </mxGeometry>
        </mxCell>
        <mxCell id="0-gvIS_jXQqOGHr48Svx-30" value="" style="edgeStyle=orthogonalEdgeStyle;rounded=0;orthogonalLoop=1;jettySize=auto;html=1;" parent="1" source="uHP_KrZKe9CXP2k7EGdI-19" target="0-gvIS_jXQqOGHr48Svx-29" edge="1">
          <mxGeometry relative="1" as="geometry" />
        </mxCell>
        <mxCell id="uHP_KrZKe9CXP2k7EGdI-19" value="Chain/rpc&lt;br&gt;connection" style="ellipse;whiteSpace=wrap;html=1;aspect=fixed;" parent="1" vertex="1">
          <mxGeometry x="230" y="1290" width="80" height="80" as="geometry" />
        </mxCell>
        <mxCell id="uHP_KrZKe9CXP2k7EGdI-22" style="edgeStyle=orthogonalEdgeStyle;rounded=0;orthogonalLoop=1;jettySize=auto;html=1;entryX=0.5;entryY=1;entryDx=0;entryDy=0;" parent="1" source="uHP_KrZKe9CXP2k7EGdI-21" target="uHP_KrZKe9CXP2k7EGdI-17" edge="1">
          <mxGeometry relative="1" as="geometry" />
        </mxCell>
        <mxCell id="GO1gQ9hhBlQTtiSkjved-18" value="" style="edgeStyle=orthogonalEdgeStyle;rounded=0;orthogonalLoop=1;jettySize=auto;html=1;" parent="1" source="uHP_KrZKe9CXP2k7EGdI-21" target="GO1gQ9hhBlQTtiSkjved-11" edge="1">
          <mxGeometry relative="1" as="geometry" />
        </mxCell>
        <mxCell id="uHP_KrZKe9CXP2k7EGdI-21" value="MPC" style="ellipse;whiteSpace=wrap;html=1;aspect=fixed;" parent="1" vertex="1">
          <mxGeometry x="355" y="1290" width="80" height="80" as="geometry" />
        </mxCell>
        <mxCell id="uHP_KrZKe9CXP2k7EGdI-24" value="" style="edgeStyle=orthogonalEdgeStyle;rounded=0;orthogonalLoop=1;jettySize=auto;html=1;" parent="1" source="uHP_KrZKe9CXP2k7EGdI-23" target="uHP_KrZKe9CXP2k7EGdI-17" edge="1">
          <mxGeometry relative="1" as="geometry">
            <Array as="points">
              <mxPoint x="510" y="1180" />
            </Array>
          </mxGeometry>
        </mxCell>
        <mxCell id="0-gvIS_jXQqOGHr48Svx-20" value="" style="edgeStyle=orthogonalEdgeStyle;rounded=0;orthogonalLoop=1;jettySize=auto;html=1;strokeColor=none;startArrow=classic;startFill=1;" parent="1" source="uHP_KrZKe9CXP2k7EGdI-23" target="0-gvIS_jXQqOGHr48Svx-19" edge="1">
          <mxGeometry relative="1" as="geometry" />
        </mxCell>
        <mxCell id="0-gvIS_jXQqOGHr48Svx-23" style="edgeStyle=orthogonalEdgeStyle;rounded=0;orthogonalLoop=1;jettySize=auto;html=1;entryX=0;entryY=0.5;entryDx=0;entryDy=0;startArrow=classic;startFill=1;" parent="1" source="uHP_KrZKe9CXP2k7EGdI-23" target="0-gvIS_jXQqOGHr48Svx-19" edge="1">
          <mxGeometry relative="1" as="geometry">
            <mxPoint x="630" y="1370" as="targetPoint" />
          </mxGeometry>
        </mxCell>
        <mxCell id="uHP_KrZKe9CXP2k7EGdI-23" value="wallet metadata/ENS" style="ellipse;whiteSpace=wrap;html=1;aspect=fixed;" parent="1" vertex="1">
          <mxGeometry x="470" y="1290" width="80" height="80" as="geometry" />
        </mxCell>
        <mxCell id="uHP_KrZKe9CXP2k7EGdI-36" value="" style="edgeStyle=orthogonalEdgeStyle;rounded=0;orthogonalLoop=1;jettySize=auto;html=1;startArrow=classic;startFill=1;" parent="1" source="uHP_KrZKe9CXP2k7EGdI-25" target="uHP_KrZKe9CXP2k7EGdI-35" edge="1">
          <mxGeometry relative="1" as="geometry" />
        </mxCell>
        <mxCell id="GO1gQ9hhBlQTtiSkjved-21" style="edgeStyle=orthogonalEdgeStyle;rounded=0;orthogonalLoop=1;jettySize=auto;html=1;entryX=0;entryY=0.5;entryDx=0;entryDy=0;" parent="1" source="uHP_KrZKe9CXP2k7EGdI-25" target="uHP_KrZKe9CXP2k7EGdI-33" edge="1">
          <mxGeometry relative="1" as="geometry">
            <Array as="points">
              <mxPoint x="660" y="1730" />
              <mxPoint x="660" y="1550" />
            </Array>
          </mxGeometry>
        </mxCell>
        <mxCell id="GO1gQ9hhBlQTtiSkjved-29" style="edgeStyle=orthogonalEdgeStyle;rounded=0;orthogonalLoop=1;jettySize=auto;html=1;entryX=0;entryY=0.5;entryDx=0;entryDy=0;" parent="1" source="uHP_KrZKe9CXP2k7EGdI-25" target="GO1gQ9hhBlQTtiSkjved-25" edge="1">
          <mxGeometry relative="1" as="geometry">
            <Array as="points">
              <mxPoint x="660" y="1730" />
              <mxPoint x="660" y="1925" />
            </Array>
          </mxGeometry>
        </mxCell>
        <mxCell id="uHP_KrZKe9CXP2k7EGdI-25" value="Externally owned accounts(EOA)" style="whiteSpace=wrap;html=1;" parent="1" vertex="1">
          <mxGeometry x="328" y="1700" width="120" height="60" as="geometry" />
        </mxCell>
        <mxCell id="uHP_KrZKe9CXP2k7EGdI-32" value="" style="swimlane;startSize=0;" parent="1" vertex="1">
          <mxGeometry x="540" y="970" width="200" height="130" as="geometry" />
        </mxCell>
        <mxCell id="uHP_KrZKe9CXP2k7EGdI-38" value="DEFAULT INTERFACES" style="text;html=1;align=center;verticalAlign=middle;resizable=0;points=[];autosize=1;strokeColor=none;fillColor=none;" parent="uHP_KrZKe9CXP2k7EGdI-32" vertex="1">
          <mxGeometry x="20" width="160" height="30" as="geometry" />
        </mxCell>
        <mxCell id="uHP_KrZKe9CXP2k7EGdI-37" value="IERC20&lt;br&gt;IERC721&lt;br&gt;IERC1155&lt;br&gt;IERC4907&lt;br&gt;IERC4337" style="text;html=1;align=left;verticalAlign=middle;resizable=0;points=[];autosize=1;strokeColor=none;fillColor=none;" parent="uHP_KrZKe9CXP2k7EGdI-32" vertex="1">
          <mxGeometry x="30" y="30" width="80" height="90" as="geometry" />
        </mxCell>
        <mxCell id="0-gvIS_jXQqOGHr48Svx-18" value="" style="edgeStyle=orthogonalEdgeStyle;rounded=0;orthogonalLoop=1;jettySize=auto;html=1;" parent="1" source="uHP_KrZKe9CXP2k7EGdI-33" target="0-gvIS_jXQqOGHr48Svx-11" edge="1">
          <mxGeometry relative="1" as="geometry" />
        </mxCell>
        <mxCell id="uHP_KrZKe9CXP2k7EGdI-33" value="ERC-4337 Account" style="whiteSpace=wrap;html=1;" parent="1" vertex="1">
          <mxGeometry x="730" y="1520" width="120" height="60" as="geometry" />
        </mxCell>
        <mxCell id="0-gvIS_jXQqOGHr48Svx-61" value="" style="edgeStyle=orthogonalEdgeStyle;rounded=0;orthogonalLoop=1;jettySize=auto;html=1;" parent="1" source="uHP_KrZKe9CXP2k7EGdI-35" target="0-gvIS_jXQqOGHr48Svx-60" edge="1">
          <mxGeometry relative="1" as="geometry" />
        </mxCell>
        <mxCell id="uHP_KrZKe9CXP2k7EGdI-35" value="passphrase" style="whiteSpace=wrap;html=1;" parent="1" vertex="1">
          <mxGeometry x="193" y="1820" width="120" height="60" as="geometry" />
        </mxCell>
        <mxCell id="0-gvIS_jXQqOGHr48Svx-1" value="&lt;h1 style=&quot;font-size: 19px;&quot;&gt;ENS&lt;/h1&gt;" style="text;html=1;strokeColor=none;fillColor=none;spacing=5;spacingTop=-20;whiteSpace=wrap;overflow=hidden;rounded=0;fontSize=19;" parent="1" vertex="1">
          <mxGeometry x="865" y="1270" width="50" height="30" as="geometry" />
        </mxCell>
        <mxCell id="0-gvIS_jXQqOGHr48Svx-13" value="" style="edgeStyle=orthogonalEdgeStyle;rounded=0;orthogonalLoop=1;jettySize=auto;html=1;" parent="1" source="0-gvIS_jXQqOGHr48Svx-5" target="0-gvIS_jXQqOGHr48Svx-7" edge="1">
          <mxGeometry relative="1" as="geometry" />
        </mxCell>
        <mxCell id="GO1gQ9hhBlQTtiSkjved-23" value="" style="edgeStyle=orthogonalEdgeStyle;rounded=0;orthogonalLoop=1;jettySize=auto;html=1;" parent="1" source="0-gvIS_jXQqOGHr48Svx-5" target="GO1gQ9hhBlQTtiSkjved-22" edge="1">
          <mxGeometry relative="1" as="geometry">
            <Array as="points">
              <mxPoint x="940" y="1710" />
              <mxPoint x="940" y="1710" />
            </Array>
          </mxGeometry>
        </mxCell>
        <mxCell id="0-gvIS_jXQqOGHr48Svx-5" value="Aggregator" style="whiteSpace=wrap;html=1;" parent="1" vertex="1">
          <mxGeometry x="930" y="1620" width="120" height="60" as="geometry" />
        </mxCell>
        <mxCell id="0-gvIS_jXQqOGHr48Svx-15" value="" style="edgeStyle=orthogonalEdgeStyle;rounded=0;orthogonalLoop=1;jettySize=auto;html=1;" parent="1" source="0-gvIS_jXQqOGHr48Svx-7" target="0-gvIS_jXQqOGHr48Svx-14" edge="1">
          <mxGeometry relative="1" as="geometry" />
        </mxCell>
        <mxCell id="0-gvIS_jXQqOGHr48Svx-7" value="Mempool" style="whiteSpace=wrap;html=1;" parent="1" vertex="1">
          <mxGeometry x="930" y="1520" width="120" height="60" as="geometry" />
        </mxCell>
        <mxCell id="0-gvIS_jXQqOGHr48Svx-10" value="" style="edgeStyle=orthogonalEdgeStyle;rounded=0;orthogonalLoop=1;jettySize=auto;html=1;entryX=1;entryY=0.5;entryDx=0;entryDy=0;" parent="1" source="uHP_KrZKe9CXP2k7EGdI-10" target="0-gvIS_jXQqOGHr48Svx-9" edge="1">
          <mxGeometry relative="1" as="geometry">
            <Array as="points">
              <mxPoint x="600" y="720" />
            </Array>
            <mxPoint x="590" y="670" as="sourcePoint" />
            <mxPoint x="455" y="720" as="targetPoint" />
          </mxGeometry>
        </mxCell>
        <mxCell id="0-gvIS_jXQqOGHr48Svx-9" value="TX request" style="rounded=0;whiteSpace=wrap;html=1;" parent="1" vertex="1">
          <mxGeometry x="540" y="710" width="120" height="20" as="geometry" />
        </mxCell>
        <mxCell id="0-gvIS_jXQqOGHr48Svx-12" value="" style="edgeStyle=orthogonalEdgeStyle;rounded=0;orthogonalLoop=1;jettySize=auto;html=1;" parent="1" source="0-gvIS_jXQqOGHr48Svx-11" target="0-gvIS_jXQqOGHr48Svx-5" edge="1">
          <mxGeometry relative="1" as="geometry" />
        </mxCell>
        <mxCell id="0-gvIS_jXQqOGHr48Svx-11" value="Operations" style="whiteSpace=wrap;html=1;" parent="1" vertex="1">
          <mxGeometry x="730" y="1620" width="120" height="60" as="geometry" />
        </mxCell>
        <mxCell id="0-gvIS_jXQqOGHr48Svx-17" value="" style="edgeStyle=orthogonalEdgeStyle;rounded=0;orthogonalLoop=1;jettySize=auto;html=1;" parent="1" source="0-gvIS_jXQqOGHr48Svx-14" target="0-gvIS_jXQqOGHr48Svx-16" edge="1">
          <mxGeometry relative="1" as="geometry" />
        </mxCell>
        <mxCell id="0-gvIS_jXQqOGHr48Svx-14" value="TX Bundler" style="whiteSpace=wrap;html=1;" parent="1" vertex="1">
          <mxGeometry x="1130" y="1520" width="120" height="60" as="geometry" />
        </mxCell>
        <mxCell id="0-gvIS_jXQqOGHr48Svx-16" value="Paymaster" style="whiteSpace=wrap;html=1;" parent="1" vertex="1">
          <mxGeometry x="1130" y="1620" width="120" height="60" as="geometry" />
        </mxCell>
        <mxCell id="0-gvIS_jXQqOGHr48Svx-22" value="" style="edgeStyle=orthogonalEdgeStyle;rounded=0;orthogonalLoop=1;jettySize=auto;html=1;" parent="1" source="0-gvIS_jXQqOGHr48Svx-19" target="0-gvIS_jXQqOGHr48Svx-21" edge="1">
          <mxGeometry relative="1" as="geometry">
            <Array as="points">
              <mxPoint x="900" y="1350" />
              <mxPoint x="900" y="1350" />
            </Array>
          </mxGeometry>
        </mxCell>
        <mxCell id="0-gvIS_jXQqOGHr48Svx-19" value="ENS Registry" style="whiteSpace=wrap;html=1;" parent="1" vertex="1">
          <mxGeometry x="740" y="1300" width="120" height="60" as="geometry" />
        </mxCell>
        <mxCell id="0-gvIS_jXQqOGHr48Svx-21" value="ENS Registry" style="whiteSpace=wrap;html=1;" parent="1" vertex="1">
          <mxGeometry x="940" y="1300" width="120" height="60" as="geometry" />
        </mxCell>
        <mxCell id="0-gvIS_jXQqOGHr48Svx-24" value="" style="edgeStyle=orthogonalEdgeStyle;rounded=0;orthogonalLoop=1;jettySize=auto;html=1;startArrow=classic;startFill=1;endArrow=none;endFill=0;" parent="1" edge="1">
          <mxGeometry relative="1" as="geometry">
            <mxPoint x="860" y="1310" as="sourcePoint" />
            <mxPoint x="940" y="1310" as="targetPoint" />
            <Array as="points">
              <mxPoint x="900" y="1310" />
              <mxPoint x="900" y="1310" />
            </Array>
          </mxGeometry>
        </mxCell>
        <mxCell id="0-gvIS_jXQqOGHr48Svx-27" value="&lt;h1&gt;KRESUS WALLET EXTENSION&lt;/h1&gt;" style="text;html=1;strokeColor=none;fillColor=none;spacing=5;spacingTop=-20;whiteSpace=wrap;overflow=hidden;rounded=0;" parent="1" vertex="1">
          <mxGeometry x="70" y="640" width="230" height="60" as="geometry" />
        </mxCell>
        <mxCell id="0-gvIS_jXQqOGHr48Svx-28" value="&lt;h1 style=&quot;font-size: 19px;&quot;&gt;ACCOUNT ABSTRACTION&lt;/h1&gt;" style="text;html=1;strokeColor=none;fillColor=none;spacing=5;spacingTop=-20;whiteSpace=wrap;overflow=hidden;rounded=0;fontSize=19;" parent="1" vertex="1">
          <mxGeometry x="865" y="1450" width="250" height="30" as="geometry" />
        </mxCell>
        <mxCell id="0-gvIS_jXQqOGHr48Svx-32" value="" style="edgeStyle=orthogonalEdgeStyle;rounded=0;orthogonalLoop=1;jettySize=auto;html=1;" parent="1" source="0-gvIS_jXQqOGHr48Svx-29" target="0-gvIS_jXQqOGHr48Svx-31" edge="1">
          <mxGeometry relative="1" as="geometry" />
        </mxCell>
        <mxCell id="0-gvIS_jXQqOGHr48Svx-29" value="chain aggregator" style="whiteSpace=wrap;html=1;" parent="1" vertex="1">
          <mxGeometry x="-60" y="1510" width="120" height="60" as="geometry" />
        </mxCell>
        <mxCell id="0-gvIS_jXQqOGHr48Svx-34" value="" style="edgeStyle=orthogonalEdgeStyle;rounded=0;orthogonalLoop=1;jettySize=auto;html=1;" parent="1" source="0-gvIS_jXQqOGHr48Svx-31" target="0-gvIS_jXQqOGHr48Svx-33" edge="1">
          <mxGeometry relative="1" as="geometry" />
        </mxCell>
        <mxCell id="0-gvIS_jXQqOGHr48Svx-37" value="" style="edgeStyle=orthogonalEdgeStyle;rounded=0;orthogonalLoop=1;jettySize=auto;html=1;" parent="1" source="0-gvIS_jXQqOGHr48Svx-31" target="0-gvIS_jXQqOGHr48Svx-35" edge="1">
          <mxGeometry relative="1" as="geometry">
            <Array as="points">
              <mxPoint x="-240" y="1590" />
              <mxPoint x="-240" y="1590" />
            </Array>
          </mxGeometry>
        </mxCell>
        <mxCell id="0-gvIS_jXQqOGHr48Svx-38" value="" style="edgeStyle=orthogonalEdgeStyle;rounded=0;orthogonalLoop=1;jettySize=auto;html=1;startArrow=classic;startFill=1;endArrow=none;endFill=0;" parent="1" source="0-gvIS_jXQqOGHr48Svx-31" target="0-gvIS_jXQqOGHr48Svx-35" edge="1">
          <mxGeometry relative="1" as="geometry">
            <Array as="points">
              <mxPoint x="-160" y="1590" />
              <mxPoint x="-160" y="1590" />
            </Array>
          </mxGeometry>
        </mxCell>
        <mxCell id="0-gvIS_jXQqOGHr48Svx-43" value="" style="edgeStyle=orthogonalEdgeStyle;rounded=0;orthogonalLoop=1;jettySize=auto;html=1;" parent="1" source="0-gvIS_jXQqOGHr48Svx-31" target="0-gvIS_jXQqOGHr48Svx-42" edge="1">
          <mxGeometry relative="1" as="geometry" />
        </mxCell>
        <mxCell id="0-gvIS_jXQqOGHr48Svx-31" value="node" style="whiteSpace=wrap;html=1;" parent="1" vertex="1">
          <mxGeometry x="-260" y="1510" width="120" height="60" as="geometry" />
        </mxCell>
        <mxCell id="0-gvIS_jXQqOGHr48Svx-33" value="network" style="whiteSpace=wrap;html=1;" parent="1" vertex="1">
          <mxGeometry x="-460" y="1510" width="120" height="60" as="geometry" />
        </mxCell>
        <mxCell id="0-gvIS_jXQqOGHr48Svx-35" value="listner socket" style="whiteSpace=wrap;html=1;" parent="1" vertex="1">
          <mxGeometry x="-260" y="1600" width="120" height="60" as="geometry" />
        </mxCell>
        <mxCell id="0-gvIS_jXQqOGHr48Svx-40" value="&lt;h1 style=&quot;font-size: 18px;&quot;&gt;GAS ESTIMATION&lt;/h1&gt;" style="text;html=1;strokeColor=none;fillColor=none;spacing=5;spacingTop=-20;whiteSpace=wrap;overflow=hidden;rounded=0;fontSize=18;" parent="1" vertex="1">
          <mxGeometry x="-365" y="1130" width="170" height="30" as="geometry" />
        </mxCell>
        <mxCell id="0-gvIS_jXQqOGHr48Svx-42" value="node Gas limit" style="whiteSpace=wrap;html=1;" parent="1" vertex="1">
          <mxGeometry x="-260" y="1360" width="120" height="60" as="geometry" />
        </mxCell>
        <mxCell id="0-gvIS_jXQqOGHr48Svx-48" value="" style="edgeStyle=orthogonalEdgeStyle;rounded=0;orthogonalLoop=1;jettySize=auto;html=1;" parent="1" source="0-gvIS_jXQqOGHr48Svx-44" target="0-gvIS_jXQqOGHr48Svx-47" edge="1">
          <mxGeometry relative="1" as="geometry" />
        </mxCell>
        <mxCell id="0-gvIS_jXQqOGHr48Svx-52" value="" style="edgeStyle=orthogonalEdgeStyle;rounded=0;orthogonalLoop=1;jettySize=auto;html=1;" parent="1" source="0-gvIS_jXQqOGHr48Svx-44" target="0-gvIS_jXQqOGHr48Svx-51" edge="1">
          <mxGeometry relative="1" as="geometry">
            <Array as="points">
              <mxPoint x="-285" y="1320" />
              <mxPoint x="-285" y="1390" />
            </Array>
          </mxGeometry>
        </mxCell>
        <mxCell id="0-gvIS_jXQqOGHr48Svx-44" value="Gas Fee" style="whiteSpace=wrap;html=1;" parent="1" vertex="1">
          <mxGeometry x="-260" y="1270" width="120" height="60" as="geometry" />
        </mxCell>
        <mxCell id="0-gvIS_jXQqOGHr48Svx-46" value="X" style="text;html=1;strokeColor=none;fillColor=none;align=center;verticalAlign=middle;whiteSpace=wrap;rounded=0;" parent="1" vertex="1">
          <mxGeometry x="-230" y="1330" width="60" height="30" as="geometry" />
        </mxCell>
        <mxCell id="0-gvIS_jXQqOGHr48Svx-47" value="Max TX Gas&amp;nbsp;" style="whiteSpace=wrap;html=1;" parent="1" vertex="1">
          <mxGeometry x="-260" y="1180" width="120" height="60" as="geometry" />
        </mxCell>
        <mxCell id="0-gvIS_jXQqOGHr48Svx-50" value="&lt;h1 style=&quot;font-size: 19px;&quot;&gt;MULTICHAIN HANDLER&lt;/h1&gt;" style="text;html=1;strokeColor=none;fillColor=none;spacing=5;spacingTop=-20;whiteSpace=wrap;overflow=hidden;rounded=0;fontSize=19;" parent="1" vertex="1">
          <mxGeometry x="-460" y="1470" width="230" height="30" as="geometry" />
        </mxCell>
        <mxCell id="0-gvIS_jXQqOGHr48Svx-54" value="" style="edgeStyle=orthogonalEdgeStyle;rounded=0;orthogonalLoop=1;jettySize=auto;html=1;" parent="1" source="0-gvIS_jXQqOGHr48Svx-51" target="0-gvIS_jXQqOGHr48Svx-53" edge="1">
          <mxGeometry relative="1" as="geometry" />
        </mxCell>
        <mxCell id="0-gvIS_jXQqOGHr48Svx-51" value="GSN" style="whiteSpace=wrap;html=1;" parent="1" vertex="1">
          <mxGeometry x="-435" y="1360" width="120" height="60" as="geometry" />
        </mxCell>
        <mxCell id="0-gvIS_jXQqOGHr48Svx-56" style="edgeStyle=orthogonalEdgeStyle;rounded=0;orthogonalLoop=1;jettySize=auto;html=1;" parent="1" source="0-gvIS_jXQqOGHr48Svx-53" target="0-gvIS_jXQqOGHr48Svx-44" edge="1">
          <mxGeometry relative="1" as="geometry" />
        </mxCell>
        <mxCell id="0-gvIS_jXQqOGHr48Svx-53" value="CUSTOM TOKEN" style="whiteSpace=wrap;html=1;" parent="1" vertex="1">
          <mxGeometry x="-435" y="1270" width="120" height="60" as="geometry" />
        </mxCell>
        <mxCell id="0-gvIS_jXQqOGHr48Svx-59" value="&lt;h1 style=&quot;font-size: 19px;&quot;&gt;KEY STORE&lt;/h1&gt;" style="text;html=1;strokeColor=none;fillColor=none;spacing=5;spacingTop=-20;whiteSpace=wrap;overflow=hidden;rounded=0;fontSize=19;" parent="1" vertex="1">
          <mxGeometry x="328" y="1780" width="120" height="30" as="geometry" />
        </mxCell>
        <mxCell id="0-gvIS_jXQqOGHr48Svx-63" value="" style="edgeStyle=orthogonalEdgeStyle;rounded=0;orthogonalLoop=1;jettySize=auto;html=1;" parent="1" source="0-gvIS_jXQqOGHr48Svx-60" target="0-gvIS_jXQqOGHr48Svx-62" edge="1">
          <mxGeometry relative="1" as="geometry" />
        </mxCell>
        <mxCell id="0-gvIS_jXQqOGHr48Svx-60" value="AES-256-GCM" style="whiteSpace=wrap;html=1;" parent="1" vertex="1">
          <mxGeometry x="393" y="1820" width="120" height="60" as="geometry" />
        </mxCell>
        <mxCell id="0-gvIS_jXQqOGHr48Svx-62" value="" style="whiteSpace=wrap;html=1;" parent="1" vertex="1">
          <mxGeometry x="393" y="1900" width="120" height="60" as="geometry" />
        </mxCell>
        <mxCell id="0-gvIS_jXQqOGHr48Svx-64" value="" style="whiteSpace=wrap;html=1;" parent="1" vertex="1">
          <mxGeometry x="403" y="1910" width="120" height="60" as="geometry" />
        </mxCell>
        <mxCell id="0-gvIS_jXQqOGHr48Svx-65" value="KEYS" style="whiteSpace=wrap;html=1;" parent="1" vertex="1">
          <mxGeometry x="413" y="1920" width="120" height="60" as="geometry" />
        </mxCell>
        <mxCell id="0-gvIS_jXQqOGHr48Svx-83" style="edgeStyle=orthogonalEdgeStyle;rounded=0;orthogonalLoop=1;jettySize=auto;html=1;entryX=1;entryY=0.5;entryDx=0;entryDy=0;" parent="1" source="0-gvIS_jXQqOGHr48Svx-70" target="0-gvIS_jXQqOGHr48Svx-79" edge="1">
          <mxGeometry relative="1" as="geometry" />
        </mxCell>
        <mxCell id="0-gvIS_jXQqOGHr48Svx-70" value="kresus wallet webapp" style="swimlane;whiteSpace=wrap;html=1;" parent="1" vertex="1">
          <mxGeometry x="1130" y="720" width="200" height="200" as="geometry" />
        </mxCell>
        <mxCell id="0-gvIS_jXQqOGHr48Svx-71" value="&lt;ul&gt;&lt;li&gt;Tokens&lt;/li&gt;&lt;li&gt;Custum Token Approvals&lt;/li&gt;&lt;li&gt;NFTS&lt;/li&gt;&lt;li&gt;Rental NFTs&lt;/li&gt;&lt;li&gt;SFTS&lt;/li&gt;&lt;li&gt;ENS&lt;/li&gt;&lt;li&gt;Multi-Sig&lt;/li&gt;&lt;/ul&gt;" style="rounded=1;whiteSpace=wrap;html=1;align=left;" parent="0-gvIS_jXQqOGHr48Svx-70" vertex="1">
          <mxGeometry x="10" y="30" width="180" height="120" as="geometry" />
        </mxCell>
        <mxCell id="0-gvIS_jXQqOGHr48Svx-72" value="Provider injection" style="rounded=1;whiteSpace=wrap;html=1;" parent="0-gvIS_jXQqOGHr48Svx-70" vertex="1">
          <mxGeometry x="10" y="160" width="180" height="30" as="geometry" />
        </mxCell>
        <mxCell id="0-gvIS_jXQqOGHr48Svx-78" style="edgeStyle=orthogonalEdgeStyle;rounded=0;orthogonalLoop=1;jettySize=auto;html=1;entryX=0.5;entryY=0;entryDx=0;entryDy=0;" parent="1" source="0-gvIS_jXQqOGHr48Svx-81" target="uHP_KrZKe9CXP2k7EGdI-14" edge="1">
          <mxGeometry relative="1" as="geometry">
            <Array as="points" />
            <mxPoint x="825" y="880" as="targetPoint" />
          </mxGeometry>
        </mxCell>
        <mxCell id="0-gvIS_jXQqOGHr48Svx-79" value="EtherJS/Web3JS" style="rounded=0;whiteSpace=wrap;html=1;" parent="1" vertex="1">
          <mxGeometry x="910" y="810" width="120" height="20" as="geometry" />
        </mxCell>
        <mxCell id="0-gvIS_jXQqOGHr48Svx-80" value="" style="edgeStyle=orthogonalEdgeStyle;rounded=0;orthogonalLoop=1;jettySize=auto;html=1;entryX=1;entryY=0.5;entryDx=0;entryDy=0;" parent="1" source="0-gvIS_jXQqOGHr48Svx-79" target="0-gvIS_jXQqOGHr48Svx-81" edge="1">
          <mxGeometry relative="1" as="geometry">
            <Array as="points">
              <mxPoint x="970" y="880" />
            </Array>
            <mxPoint x="960" y="830" as="sourcePoint" />
            <mxPoint x="825" y="880" as="targetPoint" />
          </mxGeometry>
        </mxCell>
        <mxCell id="0-gvIS_jXQqOGHr48Svx-81" value="TX request" style="rounded=0;whiteSpace=wrap;html=1;" parent="1" vertex="1">
          <mxGeometry x="910" y="870" width="120" height="20" as="geometry" />
        </mxCell>
        <mxCell id="0-gvIS_jXQqOGHr48Svx-82" value="&lt;h1&gt;KRESUS WALLET WEBAPP&lt;/h1&gt;" style="text;html=1;strokeColor=none;fillColor=none;spacing=5;spacingTop=-20;whiteSpace=wrap;overflow=hidden;rounded=0;" parent="1" vertex="1">
          <mxGeometry x="1130" y="640" width="230" height="60" as="geometry" />
        </mxCell>
        <mxCell id="0-gvIS_jXQqOGHr48Svx-101" value="" style="edgeStyle=orthogonalEdgeStyle;rounded=0;orthogonalLoop=1;jettySize=auto;html=1;" parent="1" source="0-gvIS_jXQqOGHr48Svx-85" target="0-gvIS_jXQqOGHr48Svx-100" edge="1">
          <mxGeometry relative="1" as="geometry" />
        </mxCell>
        <mxCell id="0-gvIS_jXQqOGHr48Svx-105" value="" style="edgeStyle=orthogonalEdgeStyle;rounded=0;orthogonalLoop=1;jettySize=auto;html=1;" parent="1" source="0-gvIS_jXQqOGHr48Svx-85" target="0-gvIS_jXQqOGHr48Svx-104" edge="1">
          <mxGeometry relative="1" as="geometry" />
        </mxCell>
        <mxCell id="0-gvIS_jXQqOGHr48Svx-85" value="kresus wallet webapp" style="swimlane;whiteSpace=wrap;html=1;" parent="1" vertex="1">
          <mxGeometry x="-315" y="720" width="200" height="200" as="geometry" />
        </mxCell>
        <mxCell id="0-gvIS_jXQqOGHr48Svx-86" value="&lt;ul&gt;&lt;li&gt;Tokens&lt;/li&gt;&lt;li&gt;Custum Token Approvals&lt;/li&gt;&lt;li&gt;NFTS&lt;/li&gt;&lt;li&gt;Rental NFTs&lt;/li&gt;&lt;li&gt;SFTS&lt;/li&gt;&lt;li&gt;ENS&lt;/li&gt;&lt;li&gt;Multi-Sig&lt;/li&gt;&lt;/ul&gt;" style="rounded=1;whiteSpace=wrap;html=1;align=left;" parent="0-gvIS_jXQqOGHr48Svx-85" vertex="1">
          <mxGeometry x="10" y="30" width="180" height="120" as="geometry" />
        </mxCell>
        <mxCell id="0-gvIS_jXQqOGHr48Svx-87" value="provider injection" style="rounded=1;whiteSpace=wrap;html=1;" parent="0-gvIS_jXQqOGHr48Svx-85" vertex="1">
          <mxGeometry x="10" y="160" width="180" height="30" as="geometry" />
        </mxCell>
        <mxCell id="0-gvIS_jXQqOGHr48Svx-110" style="edgeStyle=orthogonalEdgeStyle;rounded=0;orthogonalLoop=1;jettySize=auto;html=1;entryX=1;entryY=0.75;entryDx=0;entryDy=0;" parent="1" source="0-gvIS_jXQqOGHr48Svx-88" target="0-gvIS_jXQqOGHr48Svx-90" edge="1">
          <mxGeometry relative="1" as="geometry">
            <Array as="points">
              <mxPoint x="-410" y="715" />
            </Array>
          </mxGeometry>
        </mxCell>
        <mxCell id="0-gvIS_jXQqOGHr48Svx-111" value="" style="edgeStyle=orthogonalEdgeStyle;rounded=0;orthogonalLoop=1;jettySize=auto;html=1;" parent="1" source="0-gvIS_jXQqOGHr48Svx-88" target="0-gvIS_jXQqOGHr48Svx-102" edge="1">
          <mxGeometry relative="1" as="geometry" />
        </mxCell>
        <mxCell id="0-gvIS_jXQqOGHr48Svx-88" value="EtherJS/Web3JS" style="rounded=0;whiteSpace=wrap;html=1;" parent="1" vertex="1">
          <mxGeometry x="-480" y="740" width="120" height="20" as="geometry" />
        </mxCell>
        <mxCell id="0-gvIS_jXQqOGHr48Svx-90" value="TX request" style="rounded=0;whiteSpace=wrap;html=1;" parent="1" vertex="1">
          <mxGeometry x="-550" y="700" width="120" height="20" as="geometry" />
        </mxCell>
        <mxCell id="0-gvIS_jXQqOGHr48Svx-91" value="&lt;h1&gt;KRESUS WALLET MOBILE&lt;/h1&gt;" style="text;html=1;strokeColor=none;fillColor=none;spacing=5;spacingTop=-20;whiteSpace=wrap;overflow=hidden;rounded=0;" parent="1" vertex="1">
          <mxGeometry x="-315" y="640" width="230" height="60" as="geometry" />
        </mxCell>
        <mxCell id="0-gvIS_jXQqOGHr48Svx-95" value="&lt;h1&gt;KRESUS WALLET CORE&lt;/h1&gt;" style="text;html=1;strokeColor=none;fillColor=none;spacing=5;spacingTop=-20;whiteSpace=wrap;overflow=hidden;rounded=0;" parent="1" vertex="1">
          <mxGeometry x="-510" y="960" width="230" height="60" as="geometry" />
        </mxCell>
        <mxCell id="0-gvIS_jXQqOGHr48Svx-100" value="In App Browser" style="whiteSpace=wrap;html=1;fontStyle=1;startSize=23;" parent="1" vertex="1">
          <mxGeometry x="-520" y="775" width="190" height="90" as="geometry" />
        </mxCell>
        <mxCell id="0-gvIS_jXQqOGHr48Svx-102" value="Injected provider" style="rounded=0;whiteSpace=wrap;html=1;" parent="1" vertex="1">
          <mxGeometry x="-485" y="840" width="120" height="20" as="geometry" />
        </mxCell>
        <mxCell id="0-gvIS_jXQqOGHr48Svx-104" value="&lt;span style=&quot;font-weight: normal;&quot;&gt;Deep link manager&lt;/span&gt;" style="whiteSpace=wrap;html=1;fontStyle=1;startSize=23;" parent="1" vertex="1">
          <mxGeometry x="-85" y="790" width="120" height="60" as="geometry" />
        </mxCell>
        <mxCell id="0-gvIS_jXQqOGHr48Svx-108" style="edgeStyle=orthogonalEdgeStyle;rounded=0;orthogonalLoop=1;jettySize=auto;html=1;" parent="1" source="0-gvIS_jXQqOGHr48Svx-90" target="0-gvIS_jXQqOGHr48Svx-102" edge="1">
          <mxGeometry relative="1" as="geometry">
            <Array as="points">
              <mxPoint x="-540" y="850" />
            </Array>
          </mxGeometry>
        </mxCell>
        <mxCell id="0-gvIS_jXQqOGHr48Svx-112" style="edgeStyle=orthogonalEdgeStyle;rounded=0;orthogonalLoop=1;jettySize=auto;html=1;entryX=0.5;entryY=0;entryDx=0;entryDy=0;" parent="1" source="0-gvIS_jXQqOGHr48Svx-87" target="uHP_KrZKe9CXP2k7EGdI-14" edge="1">
          <mxGeometry relative="1" as="geometry">
            <Array as="points">
              <mxPoint x="-215" y="930" />
              <mxPoint x="395" y="930" />
            </Array>
          </mxGeometry>
        </mxCell>
        <mxCell id="GO1gQ9hhBlQTtiSkjved-20" value="" style="edgeStyle=orthogonalEdgeStyle;rounded=0;orthogonalLoop=1;jettySize=auto;html=1;" parent="1" source="GO1gQ9hhBlQTtiSkjved-2" target="uHP_KrZKe9CXP2k7EGdI-25" edge="1">
          <mxGeometry relative="1" as="geometry" />
        </mxCell>
        <mxCell id="GO1gQ9hhBlQTtiSkjved-2" value="" style="rounded=1;whiteSpace=wrap;html=1;" parent="1" vertex="1">
          <mxGeometry x="137" y="1446" width="500" height="210" as="geometry" />
        </mxCell>
        <mxCell id="GO1gQ9hhBlQTtiSkjved-3" value="Sharding/MPC" style="text;html=1;strokeColor=none;fillColor=none;align=center;verticalAlign=middle;whiteSpace=wrap;rounded=0;fontSize=14;" parent="1" vertex="1">
          <mxGeometry x="364.5" y="1455" width="60" height="30" as="geometry" />
        </mxCell>
        <mxCell id="GO1gQ9hhBlQTtiSkjved-4" value="" style="outlineConnect=0;dashed=0;verticalLabelPosition=bottom;verticalAlign=top;align=center;html=1;shape=mxgraph.aws3.kms;fillColor=#8191b2;gradientColor=none;strokeColor=#8191b2;" parent="1" vertex="1">
          <mxGeometry x="184.5" y="1521" width="62" height="70" as="geometry" />
        </mxCell>
        <mxCell id="GO1gQ9hhBlQTtiSkjved-5" value="" style="shape=image;html=1;verticalAlign=top;verticalLabelPosition=bottom;labelBackgroundColor=#ffffff;imageAspect=0;aspect=fixed;image=https://cdn3.iconfinder.com/data/icons/user-interface-169/32/plus-128.png" parent="1" vertex="1">
          <mxGeometry x="285.5" y="1536.5" width="39" height="39" as="geometry" />
        </mxCell>
        <mxCell id="GO1gQ9hhBlQTtiSkjved-6" value="" style="shape=image;html=1;verticalAlign=top;verticalLabelPosition=bottom;labelBackgroundColor=#ffffff;imageAspect=0;aspect=fixed;image=https://cdn3.iconfinder.com/data/icons/user-interface-169/32/plus-128.png" parent="1" vertex="1">
          <mxGeometry x="454.5" y="1536.5" width="39" height="39" as="geometry" />
        </mxCell>
        <mxCell id="GO1gQ9hhBlQTtiSkjved-7" value="&lt;h1&gt;&lt;font style=&quot;font-size: 14px;&quot;&gt;KMS&lt;/font&gt;&lt;/h1&gt;" style="text;html=1;strokeColor=none;fillColor=none;spacing=5;spacingTop=-20;whiteSpace=wrap;overflow=hidden;rounded=0;" parent="1" vertex="1">
          <mxGeometry x="194.5" y="1591" width="40" height="40" as="geometry" />
        </mxCell>
        <mxCell id="GO1gQ9hhBlQTtiSkjved-8" value="&lt;h1&gt;&lt;font style=&quot;font-size: 14px;&quot;&gt;Biometric&lt;/font&gt;&lt;/h1&gt;" style="text;html=1;strokeColor=none;fillColor=none;spacing=5;spacingTop=-20;whiteSpace=wrap;overflow=hidden;rounded=0;" parent="1" vertex="1">
          <mxGeometry x="354.5" y="1591" width="80" height="40" as="geometry" />
        </mxCell>
        <mxCell id="GO1gQ9hhBlQTtiSkjved-9" value="&lt;h1&gt;&lt;font style=&quot;font-size: 14px;&quot;&gt;Facekit&lt;/font&gt;&lt;/h1&gt;" style="text;html=1;strokeColor=none;fillColor=none;spacing=5;spacingTop=-20;whiteSpace=wrap;overflow=hidden;rounded=0;" parent="1" vertex="1">
          <mxGeometry x="527.5" y="1591" width="63" height="40" as="geometry" />
        </mxCell>
        <mxCell id="GO1gQ9hhBlQTtiSkjved-10" value="&lt;h1&gt;&lt;font style=&quot;font-size: 14px;&quot;&gt;KEY 1&lt;/font&gt;&lt;/h1&gt;" style="text;html=1;strokeColor=none;fillColor=none;spacing=5;spacingTop=-20;whiteSpace=wrap;overflow=hidden;rounded=0;" parent="1" vertex="1">
          <mxGeometry x="194.5" y="1485" width="50" height="40" as="geometry" />
        </mxCell>
        <mxCell id="GO1gQ9hhBlQTtiSkjved-11" value="&lt;h1&gt;&lt;font style=&quot;font-size: 14px;&quot;&gt;KEY 2&lt;/font&gt;&lt;/h1&gt;" style="text;html=1;strokeColor=none;fillColor=none;spacing=5;spacingTop=-20;whiteSpace=wrap;overflow=hidden;rounded=0;" parent="1" vertex="1">
          <mxGeometry x="369.5" y="1485" width="50" height="40" as="geometry" />
        </mxCell>
        <mxCell id="GO1gQ9hhBlQTtiSkjved-12" value="&lt;h1&gt;&lt;font style=&quot;font-size: 14px;&quot;&gt;KEY 3&lt;/font&gt;&lt;/h1&gt;" style="text;html=1;strokeColor=none;fillColor=none;spacing=5;spacingTop=-20;whiteSpace=wrap;overflow=hidden;rounded=0;" parent="1" vertex="1">
          <mxGeometry x="534" y="1485" width="50" height="40" as="geometry" />
        </mxCell>
        <mxCell id="GO1gQ9hhBlQTtiSkjved-13" value="" style="shape=image;html=1;verticalAlign=top;verticalLabelPosition=bottom;labelBackgroundColor=#ffffff;imageAspect=0;aspect=fixed;image=https://cdn0.iconfinder.com/data/icons/security-double-color-red-and-black-vol-1/52/finger__biometric__fingerprint__identity__thumb-128.png" parent="1" vertex="1">
          <mxGeometry x="344" y="1511" width="95.5" height="95.5" as="geometry" />
        </mxCell>
        <mxCell id="GO1gQ9hhBlQTtiSkjved-14" value="" style="shape=image;html=1;verticalAlign=top;verticalLabelPosition=bottom;labelBackgroundColor=#ffffff;imageAspect=0;aspect=fixed;image=https://cdn0.iconfinder.com/data/icons/bold-purple-free-samples/32/User_Avatar_Human_Profile_Face_Circle-128.png;imageBackground=none;imageBorder=none;" parent="1" vertex="1">
          <mxGeometry x="525" y="1523" width="68" height="68" as="geometry" />
        </mxCell>
        <mxCell id="GO1gQ9hhBlQTtiSkjved-24" value="" style="edgeStyle=orthogonalEdgeStyle;rounded=0;orthogonalLoop=1;jettySize=auto;html=1;" parent="1" source="GO1gQ9hhBlQTtiSkjved-22" target="0-gvIS_jXQqOGHr48Svx-5" edge="1">
          <mxGeometry relative="1" as="geometry">
            <Array as="points">
              <mxPoint x="1040" y="1710" />
              <mxPoint x="1040" y="1710" />
            </Array>
          </mxGeometry>
        </mxCell>
        <mxCell id="GO1gQ9hhBlQTtiSkjved-22" value="EDCSA&lt;br style=&quot;font-size: 14px;&quot;&gt;Verify" style="whiteSpace=wrap;html=1;verticalAlign=top;labelBackgroundColor=#ffffff;fontSize=14;" parent="1" vertex="1">
          <mxGeometry x="930" y="1730" width="120" height="60" as="geometry" />
        </mxCell>
        <mxCell id="GO1gQ9hhBlQTtiSkjved-25" value="" style="rounded=1;whiteSpace=wrap;html=1;" parent="1" vertex="1">
          <mxGeometry x="680" y="1820" width="610" height="210" as="geometry" />
        </mxCell>
        <mxCell id="GO1gQ9hhBlQTtiSkjved-26" value="&lt;h1 style=&quot;font-size: 19px;&quot;&gt;ASSETS CONTROLLER&lt;/h1&gt;" style="text;html=1;strokeColor=none;fillColor=none;spacing=5;spacingTop=-20;whiteSpace=wrap;overflow=hidden;rounded=0;fontSize=19;" parent="1" vertex="1">
          <mxGeometry x="880" y="1840" width="230" height="30" as="geometry" />
        </mxCell>
        <mxCell id="GO1gQ9hhBlQTtiSkjved-27" value="" style="rounded=1;whiteSpace=wrap;html=1;" parent="1" vertex="1">
          <mxGeometry x="-490" y="1820" width="610" height="210" as="geometry" />
        </mxCell>
        <mxCell id="GO1gQ9hhBlQTtiSkjved-28" value="&lt;h1 style=&quot;font-size: 19px;&quot;&gt;TRANSACTION CONTROLLER&lt;/h1&gt;" style="text;html=1;strokeColor=none;fillColor=none;spacing=5;spacingTop=-20;whiteSpace=wrap;overflow=hidden;rounded=0;fontSize=19;" parent="1" vertex="1">
          <mxGeometry x="-470" y="1840" width="210" height="50" as="geometry" />
        </mxCell>
        <mxCell id="GO1gQ9hhBlQTtiSkjved-34" value="" style="edgeStyle=orthogonalEdgeStyle;rounded=0;orthogonalLoop=1;jettySize=auto;html=1;" parent="1" source="GO1gQ9hhBlQTtiSkjved-31" edge="1">
          <mxGeometry relative="1" as="geometry">
            <mxPoint x="908.1999999999998" y="1940.0000000000005" as="targetPoint" />
          </mxGeometry>
        </mxCell>
        <mxCell id="GO1gQ9hhBlQTtiSkjved-31" value="" style="image;points=[];aspect=fixed;html=1;align=center;shadow=0;dashed=0;image=img/lib/allied_telesis/storage/Datacenter_Server_Half_Rack_ToR.svg;fontSize=14;" parent="1" vertex="1">
          <mxGeometry x="739.9999999999999" y="1882.7" width="88.2" height="114.6" as="geometry" />
        </mxCell>
        <mxCell id="GO1gQ9hhBlQTtiSkjved-32" value="Asset store" style="text;html=1;strokeColor=none;fillColor=none;align=center;verticalAlign=middle;whiteSpace=wrap;rounded=0;" parent="1" vertex="1">
          <mxGeometry x="752.1" y="1990" width="64" height="30" as="geometry" />
        </mxCell>
        <mxCell id="GO1gQ9hhBlQTtiSkjved-37" value="" style="edgeStyle=orthogonalEdgeStyle;rounded=0;orthogonalLoop=1;jettySize=auto;html=1;startArrow=classic;startFill=1;" parent="1" source="GO1gQ9hhBlQTtiSkjved-35" target="GO1gQ9hhBlQTtiSkjved-36" edge="1">
          <mxGeometry relative="1" as="geometry" />
        </mxCell>
        <mxCell id="GO1gQ9hhBlQTtiSkjved-35" value="Interface listner" style="whiteSpace=wrap;html=1;" parent="1" vertex="1">
          <mxGeometry x="910" y="1910" width="120" height="60" as="geometry" />
        </mxCell>
        <mxCell id="GO1gQ9hhBlQTtiSkjved-36" value="" style="image;points=[];aspect=fixed;html=1;align=center;shadow=0;dashed=0;image=img/lib/allied_telesis/storage/Datacenter_Server_Half_Rack_ToR.svg;fontSize=14;" parent="1" vertex="1">
          <mxGeometry x="1145.8999999999999" y="1882.7" width="88.2" height="114.6" as="geometry" />
        </mxCell>
        <mxCell id="GO1gQ9hhBlQTtiSkjved-38" value="Asset balances" style="text;html=1;strokeColor=none;fillColor=none;align=center;verticalAlign=middle;whiteSpace=wrap;rounded=0;" parent="1" vertex="1">
          <mxGeometry x="1144" y="1997.3" width="92" height="30" as="geometry" />
        </mxCell>
        <mxCell id="GO1gQ9hhBlQTtiSkjved-48" style="edgeStyle=orthogonalEdgeStyle;rounded=0;orthogonalLoop=1;jettySize=auto;html=1;" parent="1" source="GO1gQ9hhBlQTtiSkjved-39" target="0-gvIS_jXQqOGHr48Svx-35" edge="1">
          <mxGeometry relative="1" as="geometry" />
        </mxCell>
        <mxCell id="GO1gQ9hhBlQTtiSkjved-39" value="RPC" style="whiteSpace=wrap;html=1;" parent="1" vertex="1">
          <mxGeometry x="-260" y="1840" width="120" height="60" as="geometry" />
        </mxCell>
        <mxCell id="GO1gQ9hhBlQTtiSkjved-43" value="" style="edgeStyle=orthogonalEdgeStyle;rounded=0;orthogonalLoop=1;jettySize=auto;html=1;" parent="1" source="GO1gQ9hhBlQTtiSkjved-41" target="GO1gQ9hhBlQTtiSkjved-42" edge="1">
          <mxGeometry relative="1" as="geometry" />
        </mxCell>
        <mxCell id="GO1gQ9hhBlQTtiSkjved-41" value="Signer" style="whiteSpace=wrap;html=1;" parent="1" vertex="1">
          <mxGeometry x="-50" y="1840" width="120" height="60" as="geometry" />
        </mxCell>
        <mxCell id="GO1gQ9hhBlQTtiSkjved-45" value="" style="edgeStyle=orthogonalEdgeStyle;rounded=0;orthogonalLoop=1;jettySize=auto;html=1;" parent="1" source="GO1gQ9hhBlQTtiSkjved-42" target="GO1gQ9hhBlQTtiSkjved-44" edge="1">
          <mxGeometry relative="1" as="geometry" />
        </mxCell>
        <mxCell id="GO1gQ9hhBlQTtiSkjved-42" value="Transaction" style="whiteSpace=wrap;html=1;" parent="1" vertex="1">
          <mxGeometry x="-50" y="1937.3" width="120" height="60" as="geometry" />
        </mxCell>
        <mxCell id="GO1gQ9hhBlQTtiSkjved-46" value="" style="edgeStyle=orthogonalEdgeStyle;rounded=0;orthogonalLoop=1;jettySize=auto;html=1;" parent="1" source="GO1gQ9hhBlQTtiSkjved-44" target="GO1gQ9hhBlQTtiSkjved-39" edge="1">
          <mxGeometry relative="1" as="geometry" />
        </mxCell>
        <mxCell id="GO1gQ9hhBlQTtiSkjved-44" value="EDCSA&lt;br&gt;VERIFY" style="rhombus;whiteSpace=wrap;html=1;" parent="1" vertex="1">
          <mxGeometry x="-240" y="1927.3" width="80" height="80" as="geometry" />
        </mxCell>
        <mxCell id="GO1gQ9hhBlQTtiSkjved-47" style="edgeStyle=orthogonalEdgeStyle;rounded=0;orthogonalLoop=1;jettySize=auto;html=1;" parent="1" source="uHP_KrZKe9CXP2k7EGdI-25" target="GO1gQ9hhBlQTtiSkjved-41" edge="1">
          <mxGeometry relative="1" as="geometry" />
        </mxCell>
        <mxCell id="4Xqdw0RBf_yIWAhOPVlr-1" value="" style="rounded=1;whiteSpace=wrap;html=1;" vertex="1" parent="1">
          <mxGeometry x="680" y="1110" width="610" height="140" as="geometry" />
        </mxCell>
        <mxCell id="4Xqdw0RBf_yIWAhOPVlr-2" value="&lt;h1 style=&quot;font-size: 19px;&quot;&gt;STAKE AGGRIGATOR&lt;/h1&gt;" style="text;html=1;strokeColor=none;fillColor=none;spacing=5;spacingTop=-20;whiteSpace=wrap;overflow=hidden;rounded=0;fontSize=19;" vertex="1" parent="1">
          <mxGeometry x="880" y="1120" width="210" height="30" as="geometry" />
        </mxCell>
        <mxCell id="4Xqdw0RBf_yIWAhOPVlr-4" value="Whitelist accounts" style="whiteSpace=wrap;html=1;" vertex="1" parent="1">
          <mxGeometry x="1130" y="1160" width="120" height="60" as="geometry" />
        </mxCell>
        <mxCell id="4Xqdw0RBf_yIWAhOPVlr-5" style="edgeStyle=orthogonalEdgeStyle;rounded=0;orthogonalLoop=1;jettySize=auto;html=1;entryX=0.5;entryY=1;entryDx=0;entryDy=0;startArrow=classic;startFill=1;" edge="1" parent="1" source="0-gvIS_jXQqOGHr48Svx-14" target="4Xqdw0RBf_yIWAhOPVlr-4">
          <mxGeometry relative="1" as="geometry" />
        </mxCell>
        <mxCell id="4Xqdw0RBf_yIWAhOPVlr-8" value="" style="edgeStyle=orthogonalEdgeStyle;rounded=0;orthogonalLoop=1;jettySize=auto;html=1;" edge="1" parent="1" source="4Xqdw0RBf_yIWAhOPVlr-6" target="4Xqdw0RBf_yIWAhOPVlr-7">
          <mxGeometry relative="1" as="geometry" />
        </mxCell>
        <mxCell id="4Xqdw0RBf_yIWAhOPVlr-6" value="Stake" style="whiteSpace=wrap;html=1;" vertex="1" parent="1">
          <mxGeometry x="708.2" y="1160" width="120" height="60" as="geometry" />
        </mxCell>
        <mxCell id="4Xqdw0RBf_yIWAhOPVlr-9" value="" style="edgeStyle=orthogonalEdgeStyle;rounded=0;orthogonalLoop=1;jettySize=auto;html=1;" edge="1" parent="1" source="4Xqdw0RBf_yIWAhOPVlr-7" target="4Xqdw0RBf_yIWAhOPVlr-4">
          <mxGeometry relative="1" as="geometry" />
        </mxCell>
        <mxCell id="4Xqdw0RBf_yIWAhOPVlr-7" value="Aggregator contract" style="whiteSpace=wrap;html=1;" vertex="1" parent="1">
          <mxGeometry x="908.2" y="1160" width="120" height="60" as="geometry" />
        </mxCell>
        <mxCell id="4Xqdw0RBf_yIWAhOPVlr-10" value="&lt;h1 style=&quot;font-size: 28px;&quot;&gt;KRESUS WALLET ARCHITECTURE&lt;/h1&gt;" style="text;html=1;strokeColor=none;fillColor=none;spacing=5;spacingTop=-20;whiteSpace=wrap;overflow=hidden;rounded=0;fontSize=28;" vertex="1" parent="1">
          <mxGeometry x="183" y="450" width="483.5" height="40" as="geometry" />
        </mxCell>
      </root>
    </mxGraphModel>
  </diagram>
</mxfile>
